:SAMPLES-PER-SECOND 30
:FULLY-SPECIFIED
:DEGREES
477
root  -9.41942 40.0339 4.98315 -172.279 -27.4565 169.324
RightUpLeg  -9.56249 19.1201 -7.92262
RightLeg  20.8417 6.23883 1.83033
RightFoot  -9.83067 -0.04209 -1.86284
RightToes  -5.28226e-011 1.30204e-014 -6.03759e-014
Spine  15.2039 8.80688 16.9074
Spine1  -14.5837 11.9564 -18.1155
HEad  3.46602 49.0069 -8.35071
LeftShoulder1  1.59851 15.5663 24.5759
LeftArm  -93.6012 -32.9846 3.69703
LeftForeArm  2.1744 -70.6434 -35.7108
LeftHand  -1.12783 -1.84513 18.2313
RightShoulder  0.072702 -4.2695 -19.305
RightArm  -91.9039 48.256 -2.71949
RightForeArm  10.9681 73.9266 45.4516
RightHand  -1.56447 4.04871 -19.2871
LeftUpLeg  -24.3882 -12.3732 4.40616
LeftLeg  102.748 -0.427757 0.564972
LeftFoot  19.2595 3.29365 -12.5073
LeftToes  -2.42178e-010 -1.66495e-011 -2.88221e-011
478
root  -9.53224 40.0082 4.65148 -172.725 -30.7178 169.685
RightUpLeg  -7.40679 16.8318 -6.31141
RightLeg  20.2702 5.10186 0.842127
RightFoot  -10.7718 -0.0622753 -2.00202
RightToes  -5.28226e-011 1.30204e-014 -6.03759e-014
Spine  13.5405 8.51497 15.945
Spine1  -13.7234 11.2432 -16.7319
HEad  3.76299 47.6499 -8.46504
LeftShoulder1  0.992449 12.93 21.5499
LeftArm  -97.4786 -43.0604 0.184077
LeftForeArm  7.63994 -71.6692 -37.7168
LeftHand  -0.994147 0.000567825 21.2552
RightShoulder  -0.0623487 -1.6429 -14.3343
RightArm  -85.9469 52.951 9.31209
RightForeArm  33.1793 77.2909 64.6211
RightHand  -1.8977 2.92402 -26.2822
LeftUpLeg  -26.4966 -8.50217 3.5495
LeftLeg  92.9547 -0.814505 5.87508
LeftFoot  11.2324 1.94882 -10.1772
LeftToes  -2.42178e-010 -1.66495e-011 -2.88221e-011
479
root  -9.58196 39.9771 4.28101 -173.141 -35.2656 170.002
RightUpLeg  -5.13477 14.3278 -4.66134
RightLeg  19.5487 3.19947 -0.0164568
RightFoot  -11.5875 -0.0817038 -1.51996
RightToes  -5.28226e-011 1.30204e-014 -6.03759e-014
Spine  12.0278 7.77076 14.6459
Spine1  -12.867 10.0699 -15.4077
HEad  3.88614 45.2437 -8.60697
LeftShoulder1  0.403807 9.99874 16.6168
LeftArm  -96.0116 -55.1103 -5.01014
LeftForeArm  16.5974 -73.7049 -43.1244
LeftHand  -1.10478 -0.710596 21.1581
RightShoulder  0.0923718 1.41417 -7.58596
RightArm  -72.2545 56.5932 24.0343
RightForeArm  80.3345 78.2872 105.649
RightHand  -2.04104 1.6096 -33.2546
LeftUpLeg  -28.1801 -4.58095 2.53577
LeftLeg  81.4323 0.82822 9.26072
LeftFoot  7.13784 1.58574 -10.0167
LeftToes  -2.42178e-010 -1.66495e-011 -2.88221e-011
480
root  -9.60449 39.8763 3.88602 -173.914 -41.2116 170.178
RightUpLeg  -2.38211 12.4521 -2.67629
RightLeg  19.0633 -0.691686 -1.2364
RightFoot  -12.4388 -0.0973372 -1.32429
RightToes  -5.28226e-011 1.30204e-014 -6.03759e-014
Spine  10.7153 6.80324 12.6782
Spine1  -11.137 8.7888 -13.2962
HEad  3.37001 41.5509 -9.18215
LeftShoulder1  0.0288459 6.30969 10.7551
LeftArm  -79.6359 -66.022 -19.2245
LeftForeArm  24.4419 -75.26 -48.6107
LeftHand  -1.04713 -2.27665 15.8202
RightShoulder  0.50414 3.39808 -1.17802
RightArm  -47.9583 56.3584 41.9654
RightForeArm  122.455 73.4038 139.812
RightHand  -1.87024 0.22094 -37.5863
LeftUpLeg  -28.1661 -0.219979 0.758715
LeftLeg  68.5881 4.29416 12.6896
LeftFoot  4.00611 1.46293 -11.037
LeftToes  -2.42178e-010 -1.66495e-011 -2.88221e-011
481
root  -9.68125 39.5801 3.45962 -174.796 -48.645 170.749
RightUpLeg  -0.603987 10.3145 -0.111732
RightLeg  20.4847 -5.98655 -2.93096
RightFoot  -14.2324 -0.132842 -1.44738
RightToes  -5.28226e-011 1.30204e-014 -6.03759e-014
Spine  9.13119 5.59301 10.6513
Spine1  -8.83344 7.29434 -10.4071
HEad  2.1465 37.0582 -9.69463
LeftShoulder1  0.0330078 2.47471 5.5643
LeftArm  -37.913 -67.6106 -52.3811
LeftForeArm  25.1636 -74.7516 -45.5609
LeftHand  -0.566714 -2.87504 8.22833
RightShoulder  0.830992 4.20029 2.7139
RightArm  -18.5013 50.3805 59.8658
RightForeArm  147.145 68.2691 153
RightHand  -1.72529 -0.1196 -36.9907
LeftUpLeg  -27.2846 5.49348 -1.81415
LeftLeg  55.8947 9.15052 14.7455
LeftFoot  1.32125 1.40135 -12.6412
LeftToes  -2.42178e-010 -1.66495e-011 -2.88221e-011
482
root  -9.84876 39.2075 2.93746 -175.896 -56.9249 172.247
RightUpLeg  0.0882683 6.28384 2.84142
RightLeg  22.4905 -10.09 -4.74163
RightFoot  -16.2101 -0.1588 -1.16249
RightToes  -5.28226e-011 1.30204e-014 -6.03759e-014
Spine  7.48349 4.35054 9.12713
Spine1  -6.89107 5.77665 -8.3152
HEad  0.887907 31.8902 -9.00118
LeftShoulder1  0.330999 -0.785866 0.818223
LeftArm  9.93722 -66.9163 -87.5092
LeftForeArm  18.4924 -69.6442 -31.2012
LeftHand  -0.249554 -5.01277 3.18188
RightShoulder  1.13299 4.94792 5.61603
RightArm  7.20123 37.9263 72.8222
RightForeArm  163.48 69.0754 153.792
RightHand  -1.54091 0.00451456 -32.3776
LeftUpLeg  -26.6527 13.7396 -5.69141
LeftLeg  45.4624 13.7628 14.9083
LeftFoot  1.08183 1.48374 -13.6696
LeftToes  -2.42178e-010 -1.66495e-011 -2.88221e-011
483
root  -10.1404 38.84 2.30154 -178.629 -65.2985 175.638
RightUpLeg  0.868261 1.11915 6.22595
RightLeg  23.1186 -12.9777 -6.20962
RightFoot  -17.6878 -0.12588 -0.11755
RightToes  -5.28226e-011 1.30204e-014 -6.03759e-014
Spine  5.97652 3.36943 8.0096
Spine1  -5.07755 4.65147 -7.28647
HEad  0.0111523 25.8631 -6.96965
LeftShoulder1  0.895293 -3.56465 -4.75556
LeftArm  30.3785 -49.4183 -90.4615
LeftForeArm  11.9154 -56.9375 -16.7384
LeftHand  -0.198651 -8.90705 1.93208
RightShoulder  1.65236 5.76796 10.6094
RightArm  20.9315 22.8079 75.1727
RightForeArm  161.639 76.4011 138.12
RightHand  -1.19791 -0.519096 -28.2742
LeftUpLeg  -26.6009 23.8736 -10.2099
LeftLeg  39.7748 17.5203 15.416
LeftFoot  0.815682 1.28847 -12.0638
LeftToes  -2.42178e-010 -1.66495e-011 -2.88221e-011
484
root  -10.6226 38.3301 1.53426 175.205 -73.7801 -177.729
RightUpLeg  1.573 -4.60667 9.72863
RightLeg  23.9723 -15.664 -7.72118
RightFoot  -19.8258 -0.024995 1.44268
RightToes  -5.28226e-011 1.30204e-014 -6.03759e-014
Spine  4.4704 2.3759 5.74825
Spine1  -3.09931 3.4263 -5.3544
HEad  -0.759463 19.5943 -4.12376
LeftShoulder1  1.71933 -5.91175 -11.0632
LeftArm  52.7564 -36.0853 -93.696
LeftForeArm  3.50367 -38.8218 -8.21209
LeftHand  -0.419921 -9.90379 3.63452
RightShoulder  2.15689 5.66804 16.964
RightArm  25.5006 9.26281 71.4005
RightForeArm  99.3925 80.4565 69.9206
RightHand  -1.3897 0.440534 -27.4735
LeftUpLeg  -26.7072 30.576 -12.7561
LeftLeg  39.3348 18.8776 16.2196
LeftFoot  -3.33364 0.556896 -7.37925
LeftToes  -2.42178e-010 -1.66495e-011 -2.88221e-011
485
root  -11.2314 37.711 0.744656 162.143 -81.9594 -164.251
RightUpLeg  0.322519 -12.448 11.5317
RightLeg  28.1905 -15.2189 -8.87739
RightFoot  -22.5968 0.194497 3.45805
RightToes  -5.28226e-011 1.30204e-014 -6.03759e-014
Spine  3.77288 1.05807 1.26444
Spine1  -2.07729 1.6349 -2.24263
HEad  -1.8554 13.97 -0.810076
LeftShoulder1  2.57593 -7.36763 -17.073
LeftArm  58.2409 -23.7284 -84.261
LeftForeArm  -2.23721 -20.2905 -7.80784
LeftHand  -0.919768 -6.78355 9.09071
RightShoulder  2.18577 4.61222 20.5784
RightArm  25.0707 -0.28641 67.9141
RightForeArm  48.7384 67.4068 22.2673
RightHand  -1.70839 2.45537 -24.9059
LeftUpLeg  -25.7241 28.6225 -12.4597
LeftLeg  40.6385 17.9244 16.1658
LeftFoot  -9.92308 0.0856914 -1.95845
LeftToes  -2.42178e-010 -1.66495e-011 -2.88221e-011
486
root  -11.8144 37.1861 0.135349 122.427 -87.4632 -123.923
RightUpLeg  -3.93025 -21.1617 10.3039
RightLeg  37.3117 -8.64285 -7.07379
RightFoot  -22.8632 0.525475 6.69109
RightToes  -5.28226e-011 1.30204e-014 -6.03759e-014
Spine  4.90109 0.0487304 -2.47655
Spine1  -2.96211 0.455688 -1.46467
HEad  -3.42364 9.01056 2.77971
LeftShoulder1  3.09864 -7.55488 -21.726
LeftArm  19.8743 -13.6591 -66.4783
LeftForeArm  20.4352 -1.1597 -17.2735
LeftHand  -1.06714 -2.51695 16.1729
RightShoulder  1.95768 3.66167 21.0164
RightArm  26.3984 -3.71889 65.9313
RightForeArm  23.5414 46.358 9.35936
RightHand  -0.976288 1.36337 -16.625
LeftUpLeg  -24.0799 21.6584 -11.8158
LeftLeg  40.7675 17.3438 15.7654
LeftFoot  -15.881 0.146447 1.62379
LeftToes  -2.42178e-010 -1.66495e-011 -2.88221e-011
487
root  -12.3063 36.8431 -0.201363 53.9102 -88.422 -54.9087
RightUpLeg  -9.7807 -26.3426 7.05212
RightLeg  49.6815 -0.00153361 -0.266865
RightFoot  -16.3065 0.373318 12.658
RightToes  -5.28226e-011 1.30204e-014 -6.03759e-014
Spine  6.97648 0.551534 -2.72198
Spine1  -4.62805 1.24616 -4.27449
HEad  -5.35319 3.81106 5.70264
LeftShoulder1  3.01441 -6.67266 -23.3795
LeftArm  -10.3802 -3.195 -47.0546
LeftForeArm  21.4134 7.32329 -13.6927
LeftHand  -0.379906 3.50527 22.7098
RightShoulder  1.8524 3.31783 20.8559
RightArm  23.4306 -3.40086 61.3854
RightForeArm  5.55068 20.7167 7.4693
RightHand  -0.495912 -0.443833 -11.8852
LeftUpLeg  -23.1812 17.6989 -11.8359
LeftLeg  40.9264 17.5511 16.0227
LeftFoot  -19.5008 0.292311 2.51128
LeftToes  -2.42178e-010 -1.66495e-011 -2.88221e-011
